<svg width="74" height="74" viewBox="0 0 74 74" fill="none" xmlns="http://www.w3.org/2000/svg">
<g id="BookOpenText">
<path id="Vector" d="M67.0625 13.875H46.25C44.455 13.875 42.6846 14.2929 41.0791 15.0957C39.4736 15.8984 38.077 17.064 37 18.5C35.923 17.064 34.5264 15.8984 32.9209 15.0957C31.3154 14.2929 29.545 13.875 27.75 13.875H6.9375C6.32419 13.875 5.73599 14.1186 5.30232 14.5523C4.86864 14.986 4.625 15.5742 4.625 16.1875V57.8125C4.625 58.4258 4.86864 59.014 5.30232 59.4477C5.73599 59.8814 6.32419 60.125 6.9375 60.125H27.75C29.5899 60.125 31.3545 60.8559 32.6556 62.1569C33.9566 63.458 34.6875 65.2226 34.6875 67.0625C34.6875 67.6758 34.9311 68.264 35.3648 68.6977C35.7985 69.1314 36.3867 69.375 37 69.375C37.6133 69.375 38.2015 69.1314 38.6352 68.6977C39.0689 68.264 39.3125 67.6758 39.3125 67.0625C39.3125 65.2226 40.0434 63.458 41.3444 62.1569C42.6455 60.8559 44.4101 60.125 46.25 60.125H67.0625C67.6758 60.125 68.264 59.8814 68.6977 59.4477C69.1314 59.014 69.375 58.4258 69.375 57.8125V16.1875C69.375 15.5742 69.1314 14.986 68.6977 14.5523C68.264 14.1186 67.6758 13.875 67.0625 13.875ZM27.75 55.5H9.25V18.5H27.75C29.5899 18.5 31.3545 19.2309 32.6556 20.5319C33.9566 21.833 34.6875 23.5976 34.6875 25.4375V57.8125C32.6879 56.3079 30.2524 55.496 27.75 55.5ZM64.75 55.5H46.25C43.7476 55.496 41.312 56.3079 39.3125 57.8125V25.4375C39.3125 23.5976 40.0434 21.833 41.3444 20.5319C42.6455 19.2309 44.4101 18.5 46.25 18.5H64.75V55.5ZM46.25 25.4375H57.8125C58.4258 25.4375 59.014 25.6811 59.4477 26.1148C59.8814 26.5485 60.125 27.1367 60.125 27.75C60.125 28.3633 59.8814 28.9515 59.4477 29.3852C59.014 29.8189 58.4258 30.0625 57.8125 30.0625H46.25C45.6367 30.0625 45.0485 29.8189 44.6148 29.3852C44.1811 28.9515 43.9375 28.3633 43.9375 27.75C43.9375 27.1367 44.1811 26.5485 44.6148 26.1148C45.0485 25.6811 45.6367 25.4375 46.25 25.4375ZM60.125 37C60.125 37.6133 59.8814 38.2015 59.4477 38.6352C59.014 39.0689 58.4258 39.3125 57.8125 39.3125H46.25C45.6367 39.3125 45.0485 39.0689 44.6148 38.6352C44.1811 38.2015 43.9375 37.6133 43.9375 37C43.9375 36.3867 44.1811 35.7985 44.6148 35.3648C45.0485 34.9311 45.6367 34.6875 46.25 34.6875H57.8125C58.4258 34.6875 59.014 34.9311 59.4477 35.3648C59.8814 35.7985 60.125 36.3867 60.125 37ZM60.125 46.25C60.125 46.8633 59.8814 47.4515 59.4477 47.8852C59.014 48.3189 58.4258 48.5625 57.8125 48.5625H46.25C45.6367 48.5625 45.0485 48.3189 44.6148 47.8852C44.1811 47.4515 43.9375 46.8633 43.9375 46.25C43.9375 45.6367 44.1811 45.0485 44.6148 44.6148C45.0485 44.1811 45.6367 43.9375 46.25 43.9375H57.8125C58.4258 43.9375 59.014 44.1811 59.4477 44.6148C59.8814 45.0485 60.125 45.6367 60.125 46.25Z" fill="#407FC1"/>
</g>
</svg>
