<svg width="84" height="84" viewBox="0 0 84 84" fill="none" xmlns="http://www.w3.org/2000/svg">
<g id="Globe">
<path id="Vector" d="M42 7.8576C35.2507 7.8576 28.653 9.85457 23.0412 13.596C17.4294 17.3374 13.0555 22.6552 10.4726 28.8769C7.88979 35.0987 7.214 41.9449 8.53072 48.5498C9.84744 55.1548 13.0975 61.2218 17.87 65.9837C22.6425 70.7456 28.723 73.9885 35.3426 75.3023C41.9622 76.6161 48.8236 75.9419 55.0591 73.3647C61.2946 70.7876 66.6242 66.4234 70.3739 60.824C74.1236 55.2246 76.125 48.6415 76.125 41.9071C76.1146 32.8798 72.5159 24.2252 66.1185 17.842C59.7211 11.4587 51.0473 7.868 42 7.8576ZM70.875 41.9071C70.8773 44.5641 70.5096 47.2086 69.7824 49.7647H57.1463C57.9513 44.5571 57.9513 39.2571 57.1463 34.0495H69.7824C70.5096 36.6056 70.8773 39.2501 70.875 41.9071ZM33.4688 55.0031H50.5313C48.8503 60.4987 45.9322 65.5382 42 69.736C38.0693 65.5371 35.1514 60.498 33.4688 55.0031ZM32.1891 49.7647C31.2879 44.5649 31.2879 39.2493 32.1891 34.0495H51.8372C52.7384 39.2493 52.7384 44.5649 51.8372 49.7647H32.1891ZM13.125 41.9071C13.1227 39.2501 13.4905 36.6056 14.2177 34.0495H26.8538C26.0488 39.2571 26.0488 44.5571 26.8538 49.7647H14.2177C13.4905 47.2086 13.1227 44.5641 13.125 41.9071ZM50.5313 28.8111H33.4688C35.1497 23.3155 38.0678 18.276 42 14.0782C45.9307 18.2771 48.8486 23.3162 50.5313 28.8111ZM67.702 28.8111H56.0142C54.5411 23.4186 52.0584 18.353 48.697 13.8817C52.7583 14.8552 56.5605 16.6934 59.8432 19.2703C63.1258 21.8472 65.8112 25.1018 67.7152 28.8111H67.702ZM35.303 13.8817C31.9417 18.353 29.4589 23.4186 27.9858 28.8111H16.2849C18.1889 25.1018 20.8742 21.8472 24.1569 19.2703C27.4395 16.6934 31.2417 14.8552 35.303 13.8817ZM16.2849 55.0031H27.9858C29.4589 60.3956 31.9417 65.4612 35.303 69.9325C31.2417 68.959 27.4395 67.1208 24.1569 64.5439C20.8742 61.967 18.1889 58.7124 16.2849 55.0031ZM48.697 69.9325C52.0584 65.4612 54.5411 60.3956 56.0142 55.0031H67.7152C65.8112 58.7124 63.1258 61.967 59.8432 64.5439C56.5605 67.1208 52.7583 68.959 48.697 69.9325Z" fill="#407FC1"/>
</g>
</svg>
