<svg width="74" height="74" viewBox="0 0 74 74" fill="none" xmlns="http://www.w3.org/2000/svg">
<g id="GraduationCap">
<path id="Vector" d="M72.7744 25.7092L38.0869 7.2092C37.7523 7.03104 37.3791 6.93787 37 6.93787C36.621 6.93787 36.2477 7.03104 35.9131 7.2092L1.22563 25.7092C0.855647 25.9064 0.546224 26.2004 0.330466 26.5599C0.114708 26.9194 0.000732422 27.3307 0.000732422 27.75C0.000732422 28.1692 0.114708 28.5806 0.330466 28.9401C0.546224 29.2995 0.855647 29.5936 1.22563 29.7908L9.25001 34.0718V48.0682C9.24761 49.2041 9.66565 50.3007 10.4236 51.1467C14.2103 55.3641 22.6943 62.4375 37 62.4375C41.7434 62.4767 46.4513 61.6175 50.875 59.9053V69.375C50.875 69.9883 51.1186 70.5765 51.5523 71.0102C51.986 71.4438 52.5742 71.6875 53.1875 71.6875C53.8008 71.6875 54.389 71.4438 54.8227 71.0102C55.2564 70.5765 55.5 69.9883 55.5 69.375V57.6708C58.5155 55.9301 61.2405 53.7288 63.5764 51.1467C64.3344 50.3007 64.7524 49.2041 64.75 48.0682V34.0718L72.7744 29.7908C73.1444 29.5936 73.4538 29.2995 73.6695 28.9401C73.8853 28.5806 73.9993 28.1692 73.9993 27.75C73.9993 27.3307 73.8853 26.9194 73.6695 26.5599C73.4538 26.2004 73.1444 25.9064 72.7744 25.7092ZM37 57.8125C24.4923 57.8125 17.1356 51.7017 13.875 48.0682V36.5375L35.9131 48.2908C36.2477 48.4689 36.621 48.5621 37 48.5621C37.3791 48.5621 37.7523 48.4689 38.0869 48.2908L50.875 41.4718V54.8669C47.2328 56.5666 42.6425 57.8125 37 57.8125ZM60.125 48.0566C58.7388 49.5949 57.1878 50.9762 55.5 52.1758V39.0032L60.125 36.5375V48.0566ZM54.3438 34.3811L54.2802 34.3435L38.0927 25.7092C37.5526 25.4333 36.9258 25.3807 36.3472 25.5626C35.7687 25.7444 35.2848 26.1463 34.9997 26.6816C34.7146 27.2168 34.6512 27.8427 34.8232 28.4242C34.9951 29.0058 35.3886 29.4966 35.9189 29.7908L49.4297 37L37 43.6282L7.22657 27.75L37 11.8718L66.7734 27.75L54.3438 34.3811Z" fill="#407FC1"/>
</g>
</svg>
